<?xml version="1.0" standalone="no"?>
<!DOCTYPE svg PUBLIC "-//W3C//DTD SVG 20010904//EN"
 "http://www.w3.org/TR/2001/REC-SVG-20010904/DTD/svg10.dtd">
<svg version="1.0" xmlns="http://www.w3.org/2000/svg"
 width="500.000000pt" height="500.000000pt" viewBox="0 0 500.000000 500.000000"
 preserveAspectRatio="xMidYMid meet">
<metadata>
Created by potrace 1.16, written by Peter Selinger 2001-2019
</metadata>
<g transform="translate(0.000000,500.000000) scale(0.100000,-0.100000)"
fill="#000000" stroke="none">
<path d="M2718 4004 c-36 -19 -60 -67 -60 -117 1 -46 23 -83 63 -105 l29 -17
0 -117 0 -118 -110 0 -110 0 0 45 c0 39 3 46 30 60 65 34 89 120 50 182 -45
75 -148 84 -207 19 -28 -30 -33 -43 -33 -86 0 -41 5 -55 31 -85 17 -19 37 -35
45 -35 10 0 14 -14 14 -50 l0 -50 -105 0 -105 0 0 -35 0 -35 303 0 c268 0 306
-2 337 -18 40 -20 80 -74 80 -108 0 -21 5 -24 36 -24 36 0 37 0 31 36 -14 87
-93 167 -178 180 l-39 7 0 118 c0 102 2 119 16 119 24 0 73 57 80 95 8 46 -11
99 -47 130 -36 29 -106 34 -151 9z"/>
<path d="M2101 3517 c-53 -17 -117 -84 -131 -137 -7 -25 -14 -51 -16 -57 -2
-10 -35 -13 -119 -13 -112 0 -116 1 -125 24 -12 32 -53 62 -95 70 -47 9 -102
-17 -133 -64 -60 -89 26 -216 133 -196 39 8 91 47 100 76 6 18 16 20 121 20
l114 0 0 -110 0 -110 -92 0 -93 1 -20 32 c-45 71 -130 85 -194 31 -106 -89
-14 -260 120 -224 35 10 89 59 89 81 0 5 43 9 95 9 l95 0 0 -105 0 -105 35 0
35 0 0 283 c0 155 5 300 10 322 11 47 66 103 110 112 26 5 30 10 30 39 0 38
-9 40 -69 21z"/>
<path d="M2970 2925 c0 -334 -1 -343 -58 -384 -16 -11 -40 -23 -55 -26 -23 -6
-27 -13 -27 -41 0 -19 3 -34 8 -34 23 0 80 23 113 46 40 28 89 110 89 151 0
23 1 23 119 23 111 0 120 -1 126 -20 11 -35 68 -70 114 -70 85 0 131 44 131
126 0 84 -63 142 -143 131 -41 -6 -92 -45 -103 -79 -5 -16 -18 -18 -125 -18
l-119 0 0 110 0 110 50 0 c28 0 50 -4 50 -9 0 -5 12 -23 26 -40 28 -34 82 -53
124 -45 94 19 135 150 69 220 -28 29 -88 49 -123 40 -31 -8 -96 -63 -96 -82 0
-10 -14 -14 -50 -14 l-50 0 0 105 0 105 -35 0 -35 0 0 -305z"/>
<path d="M1961 2618 c19 -87 94 -159 181 -173 l38 -7 0 -114 0 -113 -30 -16
c-90 -47 -91 -183 -1 -230 119 -61 242 76 168 186 -12 19 -35 40 -50 47 l-27
13 0 115 0 114 109 0 110 0 3 -95 3 -95 -29 -12 c-91 -37 -85 -194 9 -234 46
-19 73 -18 114 4 74 40 92 143 35 203 -15 16 -36 31 -46 35 -16 5 -18 17 -18
100 l0 94 110 0 110 0 0 35 0 35 -300 0 c-234 0 -308 3 -334 14 -38 16 -83 70
-88 106 -2 21 -9 26 -40 28 l-36 3 9 -43z"/>
<path d="M760 1735 c0 -22 4 -25 39 -25 60 0 93 -16 89 -43 -3 -20 -9 -22 -65
-25 l-63 -3 0 -84 c0 -84 0 -85 25 -85 24 0 25 3 25 60 0 46 3 60 14 60 8 0
27 -27 42 -60 24 -53 30 -60 55 -60 32 0 32 -1 -12 94 -12 25 -11 30 4 41 9 7
22 26 28 43 23 66 -30 110 -133 111 -45 1 -48 -1 -48 -24z"/>
<path d="M1060 1749 c-100 -21 -131 -166 -51 -243 57 -54 160 -41 201 26 38
63 17 181 -38 203 -38 16 -79 21 -112 14z m98 -75 c49 -55 13 -154 -56 -154
-37 0 -78 31 -86 66 -10 38 11 92 42 109 34 19 71 11 100 -21z"/>
<path d="M1257 1753 c-4 -3 -7 -42 -7 -85 l0 -78 51 0 c59 0 89 -13 89 -39 0
-21 -19 -31 -56 -31 -19 0 -24 -5 -24 -26 0 -26 2 -26 47 -21 35 4 53 12 70
32 28 32 29 55 3 88 -17 22 -18 26 -5 37 22 18 19 76 -6 98 -29 28 -143 45
-162 25z"/>
<path d="M1460 1731 c0 -28 3 -30 44 -33 l44 -3 -23 -57 -24 -58 29 0 c25 0
30 7 59 78 17 42 31 83 31 90 0 8 -23 12 -80 12 l-80 0 0 -29z"/>
<path d="M1640 1731 c0 -28 3 -30 44 -33 l44 -3 -23 -57 -24 -58 29 0 c25 0
30 7 59 78 17 42 31 83 31 90 0 8 -23 12 -80 12 l-80 0 0 -29z"/>
<path d="M2090 1615 l0 -145 65 0 c63 0 65 1 65 25 0 23 -4 25 -40 25 -39 0
-40 1 -40 35 l0 35 60 0 c57 0 60 1 60 25 0 24 -3 25 -61 25 l-60 0 3 33 c3
29 6 32 41 35 32 3 37 7 37 28 0 23 -3 24 -65 24 l-65 0 0 -145z"/>
<path d="M2387 1751 c-81 -17 -117 -60 -117 -141 0 -88 51 -133 155 -134 54
-1 60 1 63 20 3 20 -3 22 -57 26 -39 3 -67 11 -80 22 -29 26 -36 77 -17 114
16 32 34 42 72 42 20 0 24 -5 24 -31 0 -27 3 -30 28 -27 26 3 27 5 27 58 0 54
0 55 -30 57 -16 0 -47 -2 -68 -6z"/>
<path d="M2660 1670 l0 -90 -80 0 -80 0 0 -55 c0 -52 1 -55 25 -55 20 0 25 5
25 25 0 24 3 25 55 25 52 0 55 -1 55 -25 0 -20 5 -25 25 -25 l25 0 0 145 0
145 -25 0 c-25 0 -25 -1 -25 -90z"/>
<path d="M2820 1615 l0 -145 65 0 c63 0 65 1 65 25 0 23 -4 25 -40 25 -39 0
-40 1 -40 35 l0 35 61 0 c57 0 60 1 57 23 -3 19 -10 22 -60 25 l-58 3 0 34 c0
34 1 35 40 35 36 0 40 3 40 25 0 24 -2 25 -65 25 l-65 0 0 -145z"/>
<path d="M3275 1752 c-37 -7 -65 -43 -65 -82 0 -43 24 -69 71 -79 46 -9 60
-37 32 -61 -13 -10 -23 -28 -23 -40 0 -19 4 -21 28 -16 85 21 81 143 -6 162
-15 3 -33 7 -39 10 -20 6 -15 42 7 54 15 8 24 6 40 -10 23 -23 60 -27 60 -6 0
40 -57 77 -105 68z"/>
<path d="M3685 1750 c-52 -11 -76 -30 -97 -77 -23 -52 -18 -108 14 -148 103
-131 298 -6 230 148 -27 60 -85 91 -147 77z m55 -50 c24 0 50 -46 50 -87 0
-55 -33 -93 -80 -93 -95 0 -111 150 -20 183 8 3 21 4 28 1 8 -2 18 -4 22 -4z"/>
<path d="M3868 1754 c-5 -4 -8 -16 -8 -26 0 -15 8 -18 44 -18 65 0 98 -15 94
-43 -3 -20 -9 -22 -70 -25 l-68 -3 0 -84 c0 -84 0 -85 25 -85 22 0 24 4 27 58
2 42 7 57 18 57 8 0 27 -26 42 -57 23 -48 32 -58 53 -58 31 0 31 8 0 70 l-25
49 25 25 c33 34 34 84 1 115 -19 18 -40 24 -88 28 -35 3 -66 2 -70 -3z"/>
<path d="M4070 1615 l0 -145 65 0 c63 0 65 1 65 25 0 23 -4 25 -40 25 -39 0
-40 1 -40 35 l0 35 61 0 c57 0 60 1 57 23 -3 19 -10 22 -60 25 l-58 3 0 34 c0
34 1 35 40 35 36 0 40 3 40 25 0 24 -2 25 -65 25 l-65 0 0 -145z"/>
</g>
</svg>
