<?xml version="1.0" standalone="no"?>
<!DOCTYPE svg PUBLIC "-//W3C//DTD SVG 20010904//EN"
 "http://www.w3.org/TR/2001/REC-SVG-20010904/DTD/svg10.dtd">
<svg version="1.0" xmlns="http://www.w3.org/2000/svg"
 width="2048.000000pt" height="1164.000000pt" viewBox="0 0 2048.000000 1164.000000"
 preserveAspectRatio="xMidYMid meet">
<metadata>
Created by potrace 1.16, written by Peter Selinger 2001-2019
</metadata>
<g transform="translate(0.000000,1164.000000) scale(0.100000,-0.100000)"
fill="#000000" stroke="none">
<path d="M3826 7368 c-4 -51 -13 -250 -21 -443 -9 -192 -20 -424 -25 -515 -5
-91 -10 -178 -10 -195 l0 -30 447 0 c289 0 447 4 449 10 2 6 10 96 19 200 9
105 20 234 26 289 5 54 9 119 9 146 l0 47 -127 6 c-71 4 -213 10 -317 13
l-189 7 7 161 c3 89 9 214 13 279 l6 117 -141 0 -140 0 -6 -92z m510 -734 l87
-7 -7 -75 c-3 -41 -6 -91 -6 -109 l0 -35 -142 7 c-214 9 -198 2 -198 95 0 42
3 92 7 110 l6 33 84 -7 c45 -3 122 -9 169 -12z"/>
<path d="M2025 7340 c-187 -4 -388 -8 -447 -9 l-108 -1 0 -97 c0 -119 19 -807
26 -950 l6 -103 138 0 c77 0 141 4 145 9 3 6 8 125 12 265 l6 256 56 -1 c31 0
64 -4 74 -7 10 -4 106 -124 215 -267 153 -201 203 -261 222 -264 14 -2 98 0
187 4 l161 7 -156 202 c-85 110 -177 229 -204 264 l-48 62 62 0 c35 0 93 3
129 6 l66 7 7 216 c3 119 7 259 8 311 l2 95 -109 1 c-61 0 -263 -3 -450 -6z
m115 -335 l0 -95 -170 0 c-93 0 -173 0 -176 0 -4 0 -8 146 -4 185 0 3 79 5
175 5 l175 0 0 -95z"/>
<path d="M15505 7329 c-55 -4 -217 -15 -360 -24 -143 -9 -315 -19 -382 -24
-68 -4 -126 -11 -130 -14 -8 -9 26 -690 35 -698 4 -4 140 -1 302 7 162 7 325
13 363 14 l67 0 0 -78 0 -78 -362 -12 c-199 -7 -363 -14 -365 -15 -4 -5 16
-219 21 -224 6 -6 997 15 1004 21 3 3 -3 149 -12 323 -9 175 -16 326 -16 337
0 17 -6 18 -62 12 -35 -3 -171 -10 -303 -16 -132 -5 -265 -12 -297 -15 l-56
-6 -7 76 c-4 42 -6 77 -4 79 2 2 157 11 344 20 187 10 349 19 360 21 20 4 21
7 9 132 -7 70 -13 138 -13 151 -1 15 -7 22 -18 21 -10 -1 -63 -5 -118 -10z"/>
<path d="M12754 6758 c3 -309 7 -563 9 -564 1 -1 249 -3 551 -5 l548 -4 -1
130 c-1 72 -5 133 -9 137 -4 3 -128 9 -277 12 -148 4 -316 9 -373 12 l-103 6
3 95 3 94 293 -1 c162 0 297 -1 300 -1 28 -4 32 4 32 75 0 58 -3 75 -16 80 -9
3 -153 6 -320 6 l-304 0 0 95 0 95 405 -7 405 -6 0 146 0 146 -32 5 c-18 3
-278 7 -577 11 l-544 5 7 -562z"/>
<path d="M7900 7157 l0 -144 192 -7 c106 -4 194 -8 195 -10 2 -2 8 -185 14
-407 5 -221 11 -405 13 -407 3 -2 76 0 164 4 l160 7 -4 126 c-3 69 -9 245 -14
391 -5 145 -6 268 -2 271 4 4 88 1 187 -6 99 -7 183 -10 186 -6 4 3 10 76 14
162 l7 156 -399 6 c-219 4 -469 7 -555 7 l-158 0 0 -143z"/>
<path d="M15778 7294 c-5 -4 -8 -254 -8 -556 l0 -548 295 0 295 0 0 130 0 130
-145 0 -145 0 0 155 0 155 130 0 130 0 0 114 c0 63 -3 121 -6 130 -5 13 -26
16 -130 16 l-124 0 0 135 0 135 -99 0 c-54 0 -118 3 -142 6 -24 3 -47 2 -51
-2z"/>
<path d="M11060 6739 l0 -552 101 6 c56 4 104 9 108 12 3 4 8 85 9 180 l4 173
101 4 c56 2 105 2 110 0 4 -2 7 -88 7 -193 l0 -189 155 0 155 0 0 319 0 319
-22 6 c-13 3 -132 6 -265 6 l-243 0 -2 228 -3 227 -107 3 -108 3 0 -552z"/>
<path d="M10007 6869 c-4 -178 -7 -404 -7 -501 l0 -178 490 0 490 0 0 84 c0
45 -3 111 -6 145 l-7 61 -116 0 c-64 0 -214 3 -333 7 l-218 6 0 195 0 195 334
-6 335 -5 5 51 c3 29 8 95 12 148 l6 96 -349 7 c-191 3 -411 9 -489 12 l-141
6 -6 -323z"/>
<path d="M5149 7103 l-347 -3 -6 -31 c-3 -17 -6 -79 -6 -137 l0 -105 293 7
292 6 -120 -48 c-66 -27 -186 -73 -267 -103 l-147 -54 -5 -35 c-3 -19 -8 -102
-11 -185 -3 -82 -8 -167 -11 -187 l-6 -38 515 0 514 0 7 61 c3 34 6 97 6 141
0 64 -3 80 -17 85 -9 4 -153 1 -320 -6 -167 -8 -306 -12 -308 -9 -2 2 132 57
300 122 l304 119 5 61 c3 33 7 124 8 201 l3 140 -165 0 c-91 0 -321 -1 -511
-2z"/>
<path d="M6239 7102 l-317 -2 -6 -31 c-3 -17 -6 -79 -6 -137 l0 -105 288 7
c158 4 284 5 281 2 -7 -8 -467 -187 -496 -193 -27 -6 -30 -26 -38 -218 -3 -82
-8 -169 -11 -192 l-5 -43 515 0 516 0 0 146 0 147 -182 -7 c-101 -3 -246 -8
-323 -11 -96 -4 -134 -2 -120 5 19 9 446 177 546 214 l47 18 6 66 c3 37 6 128
7 202 l2 135 -194 0 c-107 0 -336 -1 -510 -3z"/>
<path d="M17588 7083 l-178 -3 0 -198 c0 -108 3 -308 7 -444 l6 -248 154 0
153 0 0 333 c0 184 2 336 4 338 2 2 27 2 55 1 l51 -4 0 -74 0 -74 114 0 113 0
6 68 c4 37 7 122 7 190 l0 122 -157 -2 c-87 -1 -238 -4 -335 -5z"/>
<path d="M9351 7073 l-274 -3 7 -163 c4 -89 13 -268 21 -397 8 -129 15 -254
15 -277 l0 -43 405 0 c223 0 405 3 404 8 0 4 -6 50 -12 102 l-13 95 -236 3
-235 2 -7 38 c-15 91 -17 89 87 96 50 3 168 9 260 12 l168 7 -6 56 c-6 61 -35
438 -35 459 0 9 -33 11 -137 10 -76 -2 -261 -4 -412 -5z m313 -215 c3 -18 7
-52 10 -75 l6 -41 -73 -6 c-39 -3 -104 -8 -144 -11 l-71 -5 -6 38 c-5 34 -9
107 -7 125 1 4 64 7 141 7 l139 0 5 -32z"/>
<path d="M18450 7073 c-156 -2 -288 -7 -293 -12 -7 -7 9 -342 33 -696 5 -77
10 -148 10 -157 0 -17 26 -18 400 -18 l400 0 0 22 c0 12 -5 59 -12 105 l-12
83 -235 2 -236 3 -7 60 c-3 33 -5 61 -3 63 2 2 117 8 257 14 139 6 255 12 257
14 5 4 -26 437 -35 492 l-5 32 -117 -2 c-64 -2 -245 -4 -402 -5z m294 -254 c4
-39 5 -74 1 -77 -9 -9 -268 -21 -277 -13 -3 3 -9 41 -13 84 l-7 77 145 0 144
0 7 -71z"/>
<path d="M2790 6631 c0 -231 -3 -426 -6 -435 -6 -14 39 -16 461 -16 l467 0 -6
78 c-3 42 -8 199 -11 347 -3 149 -8 309 -11 358 l-6 87 -444 0 -444 0 0 -419z
m588 17 l-3 -183 -137 -3 -137 -3 -5 43 c-3 24 -7 105 -9 180 l-4 137 101 4
c55 1 122 4 149 5 l47 2 -2 -182z"/>
<path d="M16430 6615 l0 -435 460 0 460 0 -6 263 c-4 144 -9 339 -13 432 l-6
170 -447 3 -448 2 0 -435z m591 34 c-2 -96 -5 -178 -8 -182 -6 -10 -262 -7
-268 3 -3 4 -8 84 -11 178 l-7 171 134 3 c74 2 141 3 149 2 13 -1 14 -26 11
-175z"/>
<path d="M14049 6703 l-76 -4 -7 -101 c-4 -55 -5 -102 -3 -104 2 -2 137 -7
300 -11 l297 -6 0 116 0 117 -217 -2 c-120 -1 -252 -4 -294 -5z"/>
<path d="M8025 5728 c-66 -23 -95 -77 -74 -137 14 -39 33 -44 124 -32 123 18
195 67 195 136 0 25 -5 34 -22 39 -37 9 -190 5 -223 -6z"/>
<path d="M15480 5718 c-51 -26 -66 -56 -56 -112 10 -51 34 -60 124 -48 123 17
202 72 202 140 0 32 -34 42 -139 42 -70 0 -95 -4 -131 -22z"/>
<path d="M5060 5485 c-36 -7 -121 -36 -190 -64 -160 -64 -234 -83 -285 -75
-46 7 -131 50 -139 70 -10 27 -35 14 -62 -32 -48 -82 -16 -174 73 -206 18 -7
33 -16 33 -20 0 -4 -18 -20 -40 -34 -27 -18 -43 -38 -50 -63 -39 -130 -6 -298
74 -384 75 -81 209 -74 391 18 63 32 71 34 80 19 48 -78 104 -109 188 -101 34
3 66 12 75 21 14 13 7 22 -59 84 -41 39 -71 73 -68 76 16 17 135 22 222 9 142
-21 163 -7 110 74 -41 65 -108 96 -213 101 -114 6 -184 -13 -328 -88 -99 -52
-122 -60 -169 -60 -69 0 -88 10 -115 63 -26 52 -28 141 -4 214 l16 49 74 12
c86 13 159 37 304 99 139 59 183 67 334 61 128 -6 128 -6 128 17 0 37 -37 72
-113 110 -86 42 -168 52 -267 30z"/>
<path d="M13388 5476 c-38 -13 -88 -36 -112 -50 -62 -36 -201 -170 -245 -235
-39 -59 -81 -143 -81 -163 0 -28 -19 13 -45 97 -15 50 -36 107 -46 127 -21 40
-79 85 -161 123 -47 22 -98 33 -98 21 0 -2 32 -73 71 -158 91 -196 123 -283
164 -443 l32 -130 38 -3 c21 -2 58 4 81 13 42 16 43 17 49 73 17 154 65 276
147 374 74 88 234 192 279 181 33 -9 21 -31 -33 -62 -29 -16 -70 -41 -90 -56
l-38 -26 0 -74 c0 -41 4 -77 10 -80 5 -3 32 10 59 28 27 19 66 38 85 41 34 7
76 -6 76 -23 0 -21 -55 -52 -160 -91 -142 -53 -178 -70 -212 -107 -33 -35 -48
-73 -48 -124 0 -75 71 -169 127 -169 24 0 25 2 18 38 -4 20 -9 49 -12 63 -7
40 40 71 203 138 231 94 263 119 272 210 4 44 1 57 -24 92 -16 23 -39 46 -51
52 -27 12 -27 14 -8 60 35 84 7 214 -55 259 -42 31 -115 32 -192 4z"/>
<path d="M15702 5485 c-34 -8 -117 -36 -185 -63 -242 -98 -311 -100 -424 -16
l-31 24 -26 -30 c-29 -35 -41 -85 -31 -129 7 -34 63 -88 100 -97 33 -8 31 -18
-7 -45 -46 -33 -55 -46 -69 -113 -22 -103 21 -277 82 -335 88 -84 200 -80 394
13 61 30 71 32 80 19 47 -72 97 -103 168 -103 87 0 132 36 86 68 -40 27 -124
110 -118 116 3 3 35 10 72 15 50 7 88 6 153 -6 134 -23 156 -9 112 68 -45 80
-137 116 -276 106 -98 -7 -148 -24 -292 -99 -82 -43 -108 -52 -148 -51 -64 1
-87 15 -114 66 -26 52 -27 131 -3 208 l17 55 72 11 c84 14 160 39 304 100 139
59 183 67 334 61 126 -6 128 -5 128 16 0 50 -85 115 -185 141 -70 18 -109 18
-193 0z"/>
<path d="M11585 5472 c-38 -10 -99 -31 -135 -46 -125 -53 -212 -86 -255 -97
-63 -16 -145 3 -183 42 -26 26 -33 29 -51 20 -62 -33 -64 -131 -4 -180 51 -42
106 -54 220 -49 114 5 174 24 343 103 138 65 223 85 373 86 62 0 120 4 130 8
17 6 17 8 -3 33 -11 15 -51 42 -87 60 -62 30 -76 33 -173 35 -75 2 -125 -3
-175 -15z"/>
<path d="M8192 5460 c-40 -10 -133 -47 -208 -81 -192 -87 -232 -89 -309 -18
-49 45 -69 46 -85 4 -24 -63 -2 -142 51 -184 31 -24 97 -41 135 -33 32 6 32 6
-16 -108 -82 -195 -79 -308 9 -367 71 -48 121 -23 121 59 0 126 30 218 124
383 25 44 46 89 46 100 0 17 20 26 123 57 176 54 219 62 322 54 49 -3 100 -9
113 -12 17 -5 22 -2 22 14 0 28 -62 79 -138 115 -85 40 -203 46 -310 17z"/>
<path d="M14430 5460 c-41 -11 -122 -43 -180 -70 -215 -101 -265 -104 -344
-21 -38 40 -61 40 -75 0 -24 -70 -4 -144 52 -190 29 -23 94 -39 131 -32 34 7
34 8 -14 -107 -61 -146 -75 -245 -42 -310 30 -60 109 -97 151 -71 9 6 16 39
21 92 14 148 40 222 126 364 23 39 44 81 45 95 4 22 18 29 139 68 153 49 253
61 365 44 38 -6 73 -8 78 -3 16 16 -55 81 -128 117 -64 32 -85 37 -162 40 -67
3 -106 -1 -163 -16z"/>
<path d="M5875 5406 c-110 -27 -225 -110 -225 -162 0 -27 34 -40 75 -30 14 4
25 4 25 0 0 -3 -19 -27 -41 -52 -131 -149 -153 -308 -57 -417 115 -131 225
-136 351 -17 31 30 57 50 57 43 0 -25 83 -101 123 -112 109 -29 275 79 348
226 27 56 32 78 33 143 1 101 -24 169 -87 239 -58 63 -159 116 -262 138 -84
18 -270 18 -340 1z m358 -196 c32 -12 71 -33 89 -48 84 -71 75 -194 -19 -285
-33 -32 -46 -38 -74 -35 -44 4 -47 22 -23 141 16 87 16 90 -1 104 -21 15 -102
18 -137 4 -14 -5 -29 -24 -37 -46 -19 -54 -80 -155 -112 -187 -55 -56 -139
-20 -139 58 0 73 102 229 195 297 38 28 43 29 120 24 45 -3 106 -15 138 -27z"/>
<path d="M10048 5159 c-65 -9 -141 -35 -308 -105 -141 -59 -214 -68 -279 -35
-23 12 -44 28 -48 36 -16 42 -83 -17 -83 -72 0 -52 28 -91 87 -120 49 -23 60
-25 160 -21 123 5 180 22 339 98 139 67 195 80 362 87 156 6 166 11 111 58
-47 39 -98 62 -164 74 -66 12 -94 12 -177 0z"/>
<path d="M12248 5011 c-27 -4 -53 -12 -59 -18 -17 -17 -29 -104 -15 -109 6 -2
83 0 171 4 l160 7 0 60 0 60 -105 1 c-58 1 -126 -1 -152 -5z"/>
<path d="M11589 4986 c-20 -7 -53 -23 -74 -36 -21 -13 -40 -19 -44 -14 -24 36
-66 54 -123 54 -73 0 -109 -17 -213 -105 -82 -68 -135 -92 -177 -82 -27 7 -68
42 -86 73 -18 29 -32 1 -32 -64 0 -110 51 -162 157 -162 86 0 157 29 244 100
88 72 105 76 95 23 -20 -105 -19 -118 6 -147 44 -52 153 -46 198 11 18 23 18
27 4 49 -38 56 12 127 100 141 33 5 34 4 64 -58 39 -81 72 -103 156 -101 78 1
107 12 150 58 39 42 66 108 66 165 0 58 -29 57 -94 -3 -32 -30 -103 -60 -133
-56 -23 2 -33 14 -61 70 -25 50 -41 70 -66 82 -41 19 -88 20 -137 2z"/>
<path d="M4843 4491 c-57 -26 -77 -59 -70 -117 8 -73 21 -80 119 -65 139 21
207 66 215 144 5 43 5 44 -27 51 -68 13 -193 6 -237 -13z"/>
<path d="M14250 4488 c-54 -28 -72 -59 -66 -113 6 -55 35 -77 90 -69 155 21
223 57 240 128 16 63 5 71 -115 74 -92 2 -109 0 -149 -20z"/>
</g>
</svg>
